<svg xmlns="http://www.w3.org/2000/svg" width="351.536" height="33.541" viewBox="0 0 351.536 33.541">
  <g id="logo" transform="translate(-82.733 -134.82)">
    <g id="_ffffffff" data-name="#ffffffff" transform="translate(87.04 138.873)">
      <path id="Path_14" data-name="Path 14" d="M185.337,160.2a.673.673,0,0,1,.958.458,2.191,2.191,0,0,1-1.052,2.291.685.685,0,0,1-1.028-.434A2.169,2.169,0,0,1,185.337,160.2Z" transform="translate(-172.232 -160.124)" fill="#fff"/>
      <path id="Path_15" data-name="Path 15" d="M161.569,164.8a.668.668,0,0,1,.961.458,2.177,2.177,0,0,1-1.006,2.358.673.673,0,0,1-.974-.453A2.17,2.17,0,0,1,161.569,164.8Z" transform="translate(-152.345 -163.987)" fill="#fff"/>
      <path id="Path_16" data-name="Path 16" d="M112.523,182.768a8.664,8.664,0,0,1,5.541.817,6.488,6.488,0,0,1-1.937,3.6A6.141,6.141,0,0,1,112,188.4a4.22,4.22,0,0,0,2.63,4.2,11.665,11.665,0,0,1-1.325,2.794,1.877,1.877,0,0,1-.889.758c-.46.1-.772-.328-.993-.658a12.222,12.222,0,0,1-1.36-3.639,13.521,13.521,0,0,1-.109-6.337A3.726,3.726,0,0,1,112.523,182.768Z" transform="translate(-109.62 -178.989)" fill="#fff"/>
      <path id="Path_17" data-name="Path 17" d="M153.043,186.707a6.259,6.259,0,0,1,1.352-4.077,9.457,9.457,0,0,1,4.051,3.072,3.6,3.6,0,0,1,.517,3.012,7.461,7.461,0,0,1-2.231,3.2,17.378,17.378,0,0,1-5.129,3.185,5.105,5.105,0,0,1-2.323.468c-.521-.128-.556-.756-.482-1.189a10.732,10.732,0,0,1,1.221-3.14,4.239,4.239,0,0,0,4.879-.865A6.354,6.354,0,0,1,153.043,186.707Z" transform="translate(-142.498 -179.025)" fill="#fff"/>
      <path id="Path_18" data-name="Path 18" d="M463.875,201.694a3.565,3.565,0,0,1,4.442-.614,4.424,4.424,0,0,1,1.85,3.862q-3.693.01-7.388,0A4.642,4.642,0,0,1,463.875,201.694Z" transform="translate(-406.208 -194.089)" fill="#fff"/>
      <path id="Path_19" data-name="Path 19" d="M1563.44,241.712c1.645-.575,3.394-.766,5.051-1.312-.058,1.3.154,2.694-.408,3.912a4.088,4.088,0,0,1-3.987,1.972,2.584,2.584,0,0,1-2.251-2.757A2.243,2.243,0,0,1,1563.44,241.712Z" transform="translate(-1329.203 -227.541)" fill="#fff"/>
    </g>
    <g id="_0055a5ff" data-name="#0055a5ff" transform="translate(82.733 134.82)">
      <path id="Path_20" data-name="Path 20" d="M89.18,136.731a12.925,12.925,0,0,1,19.4,10.923c.006,4.4,0,8.8,0,13.2q-6.42,0-12.839,0a12.932,12.932,0,0,1-6.564-24.123m10.965,2.361a2.169,2.169,0,0,0-1.123,2.315.685.685,0,0,0,1.028.434,2.191,2.191,0,0,0,1.052-2.291.673.673,0,0,0-.958-.458m-8.347.772c-.694.349-.7,1.674.107,1.892,1.032-.035.971-2.111-.107-1.892m4.466-.026a2.17,2.17,0,0,0-1.019,2.363.673.673,0,0,0,.974.453,2.177,2.177,0,0,0,1.006-2.358.668.668,0,0,0-.961-.458m-6.544.186a1.113,1.113,0,0,0,.253,1.776c1.184.117.83-2.233-.253-1.776m4,.008a1.239,1.239,0,0,0-.269,1.906c.557.336,1.08-.32,1.125-.838.138-.508-.221-1.326-.855-1.068m-5.929.812c-.508.541-.054,1.751.75,1.624.82-.433.125-2.129-.75-1.624m14.265.314c-.708.162-1.35,1.261-.663,1.791.779.268,1.538-.65,1.382-1.39a.567.567,0,0,0-.719-.4m1.406,1.378c-.6.133-1.211.948-.735,1.5.69.428,1.656-.441,1.456-1.182-.067-.309-.457-.4-.721-.314m-13.525.264a3.726,3.726,0,0,0-2.571,2.747,13.521,13.521,0,0,0,.109,6.337,12.222,12.222,0,0,0,1.36,3.639c.221.33.533.762.993.658a1.877,1.877,0,0,0,.889-.758,11.665,11.665,0,0,0,1.325-2.794,4.22,4.22,0,0,1-2.63-4.2,6.141,6.141,0,0,0,4.13-1.209,6.488,6.488,0,0,0,1.937-3.6,8.664,8.664,0,0,0-5.541-.817m7.643,3.9a6.354,6.354,0,0,0,1.855,3.662,4.239,4.239,0,0,1-4.879.865,10.731,10.731,0,0,0-1.221,3.14c-.074.433-.038,1.06.482,1.189a5.105,5.105,0,0,0,2.323-.468,17.379,17.379,0,0,0,5.129-3.185,7.461,7.461,0,0,0,2.231-3.2,3.6,3.6,0,0,0-.517-3.012,9.457,9.457,0,0,0-4.051-3.072,6.259,6.259,0,0,0-1.352,4.077m6.845-2.537c-.458.184-.91.812-.522,1.262.671.458,1.8-.333,1.506-1.123a.785.785,0,0,0-.984-.139m.5,1.943c-.338.168-.65.589-.441.969a1.015,1.015,0,0,0,1.652-.686C106.03,145.86,105.311,145.876,104.935,146.109Z" transform="translate(-82.733 -134.968)" fill="#0055a5"/>
      <path id="Path_21" data-name="Path 21" d="M286.087,134.882c1.695,0,3.388,0,5.083,0q5.3,8.65,10.609,17.3,0-8.65,0-17.3c1.62,0,3.239,0,4.858,0q.007,12.951,0,25.9c-1.756,0-3.51,0-5.265,0q-5.209-8.448-10.433-16.887-.014,8.443,0,16.887c-1.618,0-3.236-.006-4.854.006Q286.069,147.835,286.087,134.882Z" transform="translate(-253.508 -134.87)" fill="#0055a5"/>
      <path id="Path_22" data-name="Path 22" d="M1100.091,134.89q4.157,0,8.314,0a44.493,44.493,0,0,1,5.621.253,6.889,6.889,0,0,1,5.245,4.1,10.193,10.193,0,0,1,.554,5.251,7.265,7.265,0,0,1-3.865,5.494,10.036,10.036,0,0,1-4.357.968c-2.087.12-4.179.061-6.27.074q0,4.878,0,9.759c-1.748,0-3.494,0-5.24,0q-.007-12.953,0-25.905m5.227,4.436c.032,2.433,0,4.868.016,7.3a46.46,46.46,0,0,0,6.121-.191,3.511,3.511,0,0,0,2.768-1.993,3.616,3.616,0,0,0-.66-3.965,4.044,4.044,0,0,0-2.771-1.1C1108.97,139.266,1107.141,139.287,1105.318,139.326Z" transform="translate(-937.121 -134.879)" fill="#0055a5"/>
      <path id="Path_23" data-name="Path 23" d="M1367.416,144.14c.013-3.106-.024-6.214.018-9.32,1.648.024,3.3.008,4.948.008q.01,12.953,0,25.9-2.319,0-4.637,0,0-1.353,0-2.709a7.5,7.5,0,0,1-3.162,2.579,6.923,6.923,0,0,1-5.945-.213,8.3,8.3,0,0,1-3.836-4.46,14.819,14.819,0,0,1-.665-6.348,9.239,9.239,0,0,1,2.5-5.9,7.487,7.487,0,0,1,7.886-1.656,7.7,7.7,0,0,1,2.895,2.121m-5.283,1.394a4.171,4.171,0,0,0-2.579,2.7,11.369,11.369,0,0,0-.272,4.682,5.249,5.249,0,0,0,1.365,3.213,3.74,3.74,0,0,0,4,.862,4.363,4.363,0,0,0,2.417-2.781,11.138,11.138,0,0,0,.3-4.311,5.5,5.5,0,0,0-1.453-3.519A3.8,3.8,0,0,0,1362.133,145.533Z" transform="translate(-1150.415 -134.82)" fill="#0055a5"/>
      <path id="Path_24" data-name="Path 24" d="M1485.25,134.88q2.489,0,4.979,0c0,1.538,0,3.076,0,4.615-1.66-.01-3.319,0-4.977-.006C1485.247,137.952,1485.244,136.416,1485.25,134.88Z" transform="translate(-1260.582 -134.87)" fill="#0055a5"/>
      <path id="Path_25" data-name="Path 25" d="M2176.163,134.89c1.658,0,3.317,0,4.977,0q0,12.949,0,25.9c-1.546.01-3.091,0-4.637.006,0-.908,0-1.817,0-2.725a7.243,7.243,0,0,1-6.622,3.122,7.687,7.687,0,0,1-6-4.436,13.555,13.555,0,0,1-1.021-6.8,9.379,9.379,0,0,1,2.539-6.233,7.481,7.481,0,0,1,7.873-1.64,7.806,7.806,0,0,1,2.893,2.114q-.017-4.652,0-9.3m-5.252,10.692a4.225,4.225,0,0,0-2.7,3.013,12.27,12.27,0,0,0-.118,4.81,4.714,4.714,0,0,0,1.847,3.247,3.713,3.713,0,0,0,4.216-.019,4.613,4.613,0,0,0,1.69-2.467,11.431,11.431,0,0,0,.247-4.368,5.3,5.3,0,0,0-1.5-3.42A3.808,3.808,0,0,0,2170.91,145.582Z" transform="translate(-1829.605 -134.879)" fill="#0055a5"/>
      <path id="Path_26" data-name="Path 26" d="M1971.48,136.18q2.624,0,5.253,0,0,10.644,0,21.29h12.983c0,1.467,0,2.935,0,4.4q-9.121.007-18.239,0Q1971.479,149.026,1971.48,136.18Z" transform="translate(-1668.928 -135.96)" fill="#0055a5"/>
      <path id="Path_27" data-name="Path 27" d="M720.965,140.732c1.664-.971,3.321-1.956,4.988-2.922q0,3.325,0,6.651c1.136.013,2.271-.029,3.406.021-.038,1.32-.008,2.641-.018,3.963-1.129,0-2.26,0-3.39,0,.019,3.2-.035,6.4.03,9.6a1.31,1.31,0,0,0,.767,1.4,4.046,4.046,0,0,0,2.541-.383c.207,1.294.328,2.609.434,3.917a10.035,10.035,0,0,1-5.357.556,3.918,3.918,0,0,1-2.752-1.818,9.5,9.5,0,0,1-.641-4.014c-.024-3.085,0-6.172-.011-9.257-.756,0-1.511,0-2.267,0,0-1.325.011-2.649-.006-3.974.756-.022,1.515,0,2.273-.011C720.966,143.216,720.963,141.973,720.965,140.732Z" transform="translate(-616.818 -137.331)" fill="#0055a5"/>
      <path id="Path_28" data-name="Path 28" d="M1644.854,140.737c1.655-.974,3.313-1.941,4.966-2.917,0,2.215,0,4.431,0,6.646,1.131.006,2.265,0,3.4,0q-.007,1.992,0,3.982c-1.133,0-2.267,0-3.4,0,.022,3.25-.054,6.5.045,9.751a1.229,1.229,0,0,0,.947,1.309,5.172,5.172,0,0,0,2.393-.436c.12,1.3.3,2.592.407,3.894a10.078,10.078,0,0,1-5.23.6,4.015,4.015,0,0,1-2.893-1.849,9.026,9.026,0,0,1-.633-3.857c-.011-3.138,0-6.275,0-9.411q-1.141,0-2.276,0c-.008-1.326,0-2.651,0-3.977.758-.008,1.517,0,2.278,0C1644.856,143.223,1644.851,141.98,1644.854,140.737Z" transform="translate(-1392.708 -137.339)" fill="#0055a5"/>
      <path id="Path_29" data-name="Path 29" d="M2088.564,140.784c1.658-.963,3.3-1.949,4.964-2.9,0,2.212,0,4.424,0,6.637,1.129,0,2.259,0,3.389,0,0,1.328,0,2.654,0,3.982q-1.7,0-3.386,0c.013,3.191-.037,6.383.035,9.574a1.337,1.337,0,0,0,.716,1.4,4.093,4.093,0,0,0,2.629-.352c.147,1.286.269,2.576.434,3.861a9.846,9.846,0,0,1-4.709.714,4.494,4.494,0,0,1-3.294-1.684,8.188,8.188,0,0,1-.775-4.1c-.011-3.138,0-6.275,0-9.413-.767-.011-1.531.013-2.294-.016.018-1.322,0-2.645.008-3.968.759,0,1.52,0,2.283,0C2088.565,143.273,2088.557,142.029,2088.564,140.784Z" transform="translate(-1765.33 -137.39)" fill="#0055a5"/>
      <path id="Path_30" data-name="Path 30" d="M434,178.29a8.976,8.976,0,0,1,7.167-1.3,7.812,7.812,0,0,1,5.387,4.037,14.7,14.7,0,0,1,1.3,6.992q-6.211.007-12.423,0a5.121,5.121,0,0,0,1.187,3.4,3.767,3.767,0,0,0,4.373.9,3.6,3.6,0,0,0,1.639-2.332c1.656.256,3.308.541,4.959.819a7.871,7.871,0,0,1-4.452,4.932,11.344,11.344,0,0,1-7.05.2,7.644,7.644,0,0,1-4.9-4.5,13.516,13.516,0,0,1-.665-7.245,8.937,8.937,0,0,1,3.479-5.9m2.611,3.41a4.642,4.642,0,0,0-1.1,3.249q3.693.01,7.388,0a4.424,4.424,0,0,0-1.85-3.862A3.565,3.565,0,0,0,436.615,181.7Z" transform="translate(-374.64 -170.042)" fill="#0055a5"/>
      <path id="Path_31" data-name="Path 31" d="M798.316,176.92a10.911,10.911,0,0,1,6.129.735,9.291,9.291,0,0,1,5.15,6.513,11.2,11.2,0,0,1-.738,6.939,9.4,9.4,0,0,1-5.93,4.953,10.971,10.971,0,0,1-7.8-.886A8.2,8.2,0,0,1,791,190.153a11.4,11.4,0,0,1,.652-8.541,8.85,8.85,0,0,1,6.662-4.692m.966,4.008a4.456,4.456,0,0,0-3.213,2.789,8.846,8.846,0,0,0-.376,4.315,5.1,5.1,0,0,0,1.938,3.489,4.341,4.341,0,0,0,3.675.678,4.5,4.5,0,0,0,3-2.912,9.114,9.114,0,0,0,.309-4.158,5.093,5.093,0,0,0-1.839-3.4A4.277,4.277,0,0,0,799.282,180.928Z" transform="translate(-677.104 -170.058)" fill="#0055a5"/>
      <path id="Path_32" data-name="Path 32" d="M935.106,176.987a7.63,7.63,0,0,1,5.922.95,4.914,4.914,0,0,1,1.964,2.968,15.587,15.587,0,0,1,.29,3.265c0,3.931.006,7.864,0,11.795q-2.487,0-4.974,0c.006-3.127,0-6.255,0-9.382a23.7,23.7,0,0,0-.205-3.662,2.773,2.773,0,0,0-1.692-2.126,3.881,3.881,0,0,0-4.882,2.32,14.778,14.778,0,0,0-.391,3.784q-.012,4.529,0,9.055c-1.656.024-3.314,0-4.971.011q-.007-9.393,0-18.784c1.538-.008,3.076.014,4.613-.013.048.911,0,1.823.024,2.736A7.768,7.768,0,0,1,935.106,176.987Z" transform="translate(-791.055 -170.051)" fill="#0055a5"/>
      <path id="Path_33" data-name="Path 33" d="M1232.881,176.927a10.232,10.232,0,0,1,7.851,1.716,9.31,9.31,0,0,1,3.164,4.32,11.6,11.6,0,0,1,.354,5.852,9.485,9.485,0,0,1-4.184,6.142,10.414,10.414,0,0,1-9.179.719,8.334,8.334,0,0,1-4.4-3.585,11.694,11.694,0,0,1-1.317-6.814,9.714,9.714,0,0,1,3.386-6.473,9.507,9.507,0,0,1,4.324-1.876m.956,4.013a4.5,4.5,0,0,0-3.175,2.877,9.118,9.118,0,0,0-.325,4.285,5.12,5.12,0,0,0,1.8,3.311,4.33,4.33,0,0,0,3.984.73,4.518,4.518,0,0,0,2.8-2.784,9.039,9.039,0,0,0,.375-3.918,5.3,5.3,0,0,0-1.671-3.539A4.281,4.281,0,0,0,1233.838,180.94Z" transform="translate(-1042.127 -170.053)" fill="#0055a5"/>
      <path id="Path_34" data-name="Path 34" d="M1533.605,178.307a7.31,7.31,0,0,1,3.76-1.416,19.609,19.609,0,0,1,4.987.083,6.212,6.212,0,0,1,3.9,2,5.447,5.447,0,0,1,.977,3.1c.149,2.134.008,4.274.021,6.411a19.245,19.245,0,0,0,.469,5.869,12.084,12.084,0,0,0,.658,1.6c-1.655-.01-3.309.022-4.961-.016-.21-.668-.431-1.333-.615-2.009a9.679,9.679,0,0,1-2.408,1.7,8.228,8.228,0,0,1-5.568.495,5.413,5.413,0,0,1-3.675-3.175,5.6,5.6,0,0,1,1.107-5.9,8.106,8.106,0,0,1,3.841-1.81,48.737,48.737,0,0,0,6.3-1.539c.032-.982-.05-2.238-1.045-2.742a5.989,5.989,0,0,0-3.6-.219,3.076,3.076,0,0,0-1.956,2.18c-1.5-.274-3-.551-4.508-.817a7.106,7.106,0,0,1,2.305-3.809m3.75,9.968a2.243,2.243,0,0,0-1.6,1.815,2.584,2.584,0,0,0,2.251,2.757,4.088,4.088,0,0,0,3.987-1.972c.562-1.217.351-2.611.409-3.912C1540.75,187.509,1539,187.7,1537.355,188.275Z" transform="translate(-1298.812 -170.05)" fill="#0055a5"/>
      <path id="Path_35" data-name="Path 35" d="M1732.1,177.026a5.767,5.767,0,0,1,4.737.686c-.517,1.451-1.027,2.9-1.543,4.354a4.327,4.327,0,0,0-2.562-.811,2.563,2.563,0,0,0-2.069,1.181,9.417,9.417,0,0,0-.956,4.471c-.127,3.02-.048,6.042-.071,9.063-1.656-.006-3.313,0-4.969,0,0-6.255.018-12.512-.01-18.767,1.549-.035,3.1,0,4.649-.014,0,.873,0,1.746,0,2.621A6.384,6.384,0,0,1,1732.1,177.026Z" transform="translate(-1461.645 -170.055)" fill="#0055a5"/>
      <path id="Path_36" data-name="Path 36" d="M540.67,179.31q2.422,0,4.844,0c1.176,4.09,2.332,8.186,3.515,12.274,1.051-4.09,2.162-8.163,3.2-12.256,1.607-.04,3.213,0,4.822-.018,1.038,4.094,2.087,8.186,3.119,12.282q1.785-6.139,3.577-12.278,2.458,0,4.916,0-3.023,9.388-6.028,18.78c-1.6,0-3.2.01-4.8-.006-1.052-4.018-2.158-8.021-3.212-12.036-1.067,4.011-2.114,8.029-3.176,12.043q-2.42,0-4.839,0Q543.645,188.7,540.67,179.31Z" transform="translate(-467.315 -172.18)" fill="#0055a5"/>
      <path id="Path_37" data-name="Path 37" d="M1485.25,179.317c1.661.006,3.322-.01,4.983.008q-.012,9.388,0,18.774c-1.661,0-3.324,0-4.985,0Q1485.246,188.709,1485.25,179.317Z" transform="translate(-1260.582 -172.189)" fill="#0055a5"/>
      <path id="Path_38" data-name="Path 38" d="M1808.28,179.323q2.648-.007,5.3,0c1.49,4.434,2.994,8.862,4.482,13.3,1.467-4.429,2.916-8.865,4.376-13.294,1.72,0,3.441,0,5.161,0q-3.549,9.717-7.111,19.432a21.07,21.07,0,0,1-1.951,4.434,5.174,5.174,0,0,1-2.621,2.042,11.375,11.375,0,0,1-5.985.2c-.159-1.3-.293-2.6-.44-3.9,1.4.219,3.039.513,4.262-.4a5.964,5.964,0,0,0,1.652-2.963C1813.07,191.871,1810.651,185.6,1808.28,179.323Z" transform="translate(-1531.87 -172.192)" fill="#0055a5"/>
    </g>
    <g id="_fefefeff" data-name="#fefefeff" transform="translate(91.289 139.701)">
      <path id="Path_39" data-name="Path 39" d="M136.653,165.3c1.078-.219,1.139,1.857.107,1.892C135.956,166.979,135.96,165.654,136.653,165.3Z" transform="translate(-136.145 -165.289)" fill="#fefefe"/>
      <path id="Path_40" data-name="Path 40" d="M207.426,181.911c.264-.085.654,0,.721.314.2.742-.766,1.61-1.456,1.182C206.215,182.859,206.83,182.044,207.426,181.911Z" transform="translate(-195.248 -179.223)" fill="#fefefe"/>
    </g>
    <g id="_fffffeff" data-name="#fffffeff" transform="translate(89.383 139.818)">
      <path id="Path_41" data-name="Path 41" d="M124.584,166.081c1.083-.457,1.437,1.893.253,1.776A1.113,1.113,0,0,1,124.584,166.081Z" transform="translate(-124.248 -166.022)" fill="#fffffe"/>
      <path id="Path_42" data-name="Path 42" d="M148.173,166.183c.634-.258.993.561.855,1.068-.045.517-.567,1.174-1.125.838A1.239,1.239,0,0,1,148.173,166.183Z" transform="translate(-143.831 -166.116)" fill="#fffffe"/>
    </g>
    <g id="_fffefdff" data-name="#fffefdff" transform="translate(87.582 140.604)">
      <path id="Path_43" data-name="Path 43" d="M113.217,171.023c.875-.5,1.57,1.192.75,1.624C113.163,172.774,112.709,171.565,113.217,171.023Z" transform="translate(-113.003 -170.93)" fill="#fffefd"/>
    </g>
    <g id="_fefefdff" data-name="#fefefdff" transform="translate(101.104 140.987)">
      <path id="Path_44" data-name="Path 44" d="M198.374,173.343a.567.567,0,0,1,.719.4c.155.74-.6,1.658-1.382,1.39C197.023,174.6,197.666,173.5,198.374,173.343Z" transform="translate(-197.417 -173.318)" fill="#fefefd"/>
      <path id="Path_45" data-name="Path 45" d="M218.664,203.564c.376-.232,1.1-.248,1.211.284a1.015,1.015,0,0,1-1.652.686C218.014,204.153,218.326,203.732,218.664,203.564Z" transform="translate(-214.834 -198.59)" fill="#fefefd"/>
    </g>
    <g id="_fefeffff" data-name="#fefeffff" transform="translate(103.761 143.91)">
      <path id="Path_46" data-name="Path 46" d="M214.672,191.676a.785.785,0,0,1,.984.139c.293.79-.835,1.581-1.506,1.123C213.762,192.488,214.214,191.86,214.672,191.676Z" transform="translate(-214.003 -191.568)" fill="#fefeff"/>
    </g>
  </g>
</svg>
