<svg version="1.1" xmlns="http://www.w3.org/2000/svg" viewBox="82.73 134.82 2194.54 209.38"> <g id="#ffffffff"> <path fill="#ffffff" opacity="1.00" d=" M 191.43 160.57 C 193.82 159.34 196.89 160.77 197.41 163.43 C 198.61 168.89 195.69 175.01 190.84 177.73 C 188.41 179.28 184.96 177.87 184.42 175.02 C 183.27 169.45 186.26 163.05 191.43 160.57 Z"></path> <path fill="#ffffff" opacity="1.00" d=" M 167.20 165.23 C 169.60 163.84 172.64 165.48 173.20 168.09 C 174.57 173.56 171.93 180.09 166.92 182.81 C 164.53 184.24 161.39 182.60 160.84 179.98 C 159.51 174.48 162.10 167.88 167.20 165.23 Z"></path> <path fill="#ffffff" opacity="1.00" d=" M 127.74 183.72 C 139.39 180.71 151.60 184.14 162.33 188.82 C 160.40 197.16 156.96 205.67 150.24 211.30 C 142.97 216.87 133.58 219.49 124.46 218.85 C 123.37 230.03 130.58 240.97 140.88 245.09 C 138.74 251.16 136.29 257.21 132.61 262.53 C 131.15 264.47 129.48 266.54 127.06 267.26 C 124.19 267.91 122.24 265.21 120.86 263.15 C 116.58 256.22 114.24 248.30 112.37 240.43 C 109.56 227.51 108.23 213.81 111.69 200.87 C 113.69 192.93 119.61 185.79 127.74 183.72 Z"></path> <path fill="#ffffff" opacity="1.00" d=" M 175.45 208.08 C 174.59 198.86 178.70 190.00 183.89 182.63 C 193.58 186.98 203.08 192.91 209.18 201.81 C 212.85 207.24 214.33 214.26 212.41 220.61 C 210.07 228.56 204.41 235.00 198.48 240.56 C 189.10 249.00 178.17 255.73 166.46 260.44 C 161.84 262.11 156.96 263.98 151.96 263.36 C 148.71 262.56 148.49 258.64 148.95 255.94 C 150.11 248.97 153.33 242.55 156.57 236.34 C 166.56 241.24 179.40 239.14 187.03 230.94 C 180.86 224.82 176.55 216.74 175.45 208.08 Z"></path> <path fill="#ffffff" opacity="1.00" d=" M 469.62 207.60 C 476.39 199.96 488.76 198.33 497.35 203.77 C 505.61 208.71 508.82 218.72 508.90 227.88 C 493.53 227.92 478.15 227.92 462.78 227.88 C 462.74 220.64 464.52 212.99 469.62 207.60 Z"></path> <path fill="#ffffff" opacity="1.00" d=" M 1571.89 248.59 C 1582.16 245.00 1593.08 243.81 1603.42 240.40 C 1603.06 248.52 1604.38 257.22 1600.87 264.82 C 1596.15 273.43 1585.61 278.31 1575.98 277.13 C 1567.79 276.20 1560.90 268.25 1561.93 259.92 C 1562.47 254.51 1566.86 250.20 1571.89 248.59 Z"></path> </g> <g id="#0055a5ff"> <path fill="#0055a5" opacity="1.00" d=" M 122.98 145.83 C 136.80 137.78 153.06 134.05 169.01 135.20 C 185.86 136.28 202.28 142.91 215.19 153.78 C 232.91 168.44 243.77 191.00 244.08 214.02 C 244.12 241.48 244.07 268.95 244.11 296.42 C 217.39 296.44 190.68 296.44 163.96 296.42 C 148.55 296.50 133.13 292.14 120.13 283.83 C 105.91 274.79 94.61 261.21 88.42 245.53 C 80.60 226.02 80.85 203.42 89.14 184.10 C 95.90 168.13 107.97 154.50 122.98 145.83 M 191.43 160.57 C 186.26 163.05 183.27 169.45 184.42 175.02 C 184.96 177.87 188.41 179.28 190.84 177.73 C 195.69 175.01 198.61 168.89 197.41 163.43 C 196.89 160.77 193.82 159.34 191.43 160.57 M 139.32 165.39 C 134.99 167.57 134.97 175.84 139.99 177.20 C 146.43 176.98 146.05 164.02 139.32 165.39 M 167.20 165.23 C 162.10 167.88 159.51 174.48 160.84 179.98 C 161.39 182.60 164.53 184.24 166.92 182.81 C 171.93 180.09 174.57 173.56 173.20 168.09 C 172.64 165.48 169.60 163.84 167.20 165.23 M 126.35 166.39 C 122.91 169.14 123.87 175.73 127.93 177.48 C 135.32 178.21 133.11 163.54 126.35 166.39 M 151.35 166.44 C 147.32 168.60 146.12 175.23 149.67 178.34 C 153.15 180.44 156.41 176.34 156.69 173.11 C 157.55 169.94 155.31 164.83 151.35 166.44 M 114.34 171.51 C 111.17 174.89 114.00 182.44 119.02 181.65 C 124.14 178.95 119.80 168.36 114.34 171.51 M 203.39 173.47 C 198.97 174.48 194.96 181.34 199.25 184.65 C 204.11 186.32 208.85 180.59 207.88 175.97 C 207.46 173.98 205.27 172.90 203.39 173.47 M 212.17 182.07 C 208.45 182.90 204.61 187.99 207.58 191.41 C 211.89 194.08 217.92 188.66 216.67 184.03 C 216.25 182.10 213.82 181.54 212.17 182.07 M 127.74 183.72 C 119.61 185.79 113.69 192.93 111.69 200.87 C 108.23 213.81 109.56 227.51 112.37 240.43 C 114.24 248.30 116.58 256.22 120.86 263.15 C 122.24 265.21 124.19 267.91 127.06 267.26 C 129.48 266.54 131.15 264.47 132.61 262.53 C 136.29 257.21 138.74 251.16 140.88 245.09 C 130.58 240.97 123.37 230.03 124.46 218.85 C 133.58 219.49 142.97 216.87 150.24 211.30 C 156.96 205.67 160.40 197.16 162.33 188.82 C 151.60 184.14 139.39 180.71 127.74 183.72 M 175.45 208.08 C 176.55 216.74 180.86 224.82 187.03 230.94 C 179.40 239.14 166.56 241.24 156.57 236.34 C 153.33 242.55 150.11 248.97 148.95 255.94 C 148.49 258.64 148.71 262.56 151.96 263.36 C 156.96 263.98 161.84 262.11 166.46 260.44 C 178.17 255.73 189.10 249.00 198.48 240.56 C 204.41 235.00 210.07 228.56 212.41 220.61 C 214.33 214.26 212.85 207.24 209.18 201.81 C 203.08 192.91 193.58 186.98 183.89 182.63 C 178.70 190.00 174.59 198.86 175.45 208.08 M 218.18 192.24 C 215.32 193.39 212.50 197.31 214.92 200.12 C 219.11 202.98 226.15 198.04 224.32 193.11 C 222.92 191.17 220.13 191.28 218.18 192.24 M 221.33 204.37 C 219.22 205.42 217.27 208.05 218.58 210.42 C 221.80 213.93 229.01 210.87 228.89 206.14 C 228.17 202.82 223.68 202.92 221.33 204.37 Z"></path> <path fill="#0055a5" opacity="1.00" d=" M 286.12 134.89 C 296.70 134.89 307.27 134.91 317.85 134.88 C 339.92 170.88 361.96 206.91 384.08 242.89 C 384.10 206.89 384.08 170.90 384.09 134.91 C 394.20 134.88 404.31 134.90 414.42 134.89 C 414.45 188.79 414.39 242.69 414.45 296.59 C 403.49 296.57 392.54 296.60 381.58 296.58 C 359.90 261.42 338.19 226.28 316.45 191.16 C 316.39 226.30 316.42 261.44 316.44 296.58 C 306.34 296.61 296.24 296.54 286.14 296.62 C 286.05 242.71 286.08 188.80 286.12 134.89 Z"></path> <path fill="#0055a5" opacity="1.00" d=" M 1100.11 134.89 C 1117.41 134.90 1134.71 134.89 1152.01 134.89 C 1163.71 134.94 1175.48 134.94 1187.10 136.47 C 1201.55 138.42 1214.13 148.84 1219.84 162.09 C 1224.19 172.37 1224.70 183.90 1223.30 194.87 C 1221.41 209.29 1212.25 222.66 1199.17 229.17 C 1190.91 233.87 1181.24 234.57 1171.97 235.21 C 1158.94 235.96 1145.88 235.59 1132.83 235.67 C 1132.81 255.97 1132.84 276.28 1132.82 296.59 C 1121.91 296.59 1111.01 296.56 1100.11 296.61 C 1100.08 242.70 1100.08 188.79 1100.11 134.89 M 1132.74 162.58 C 1132.94 177.77 1132.76 192.97 1132.84 208.16 C 1145.57 208.01 1158.39 208.80 1171.05 206.97 C 1178.40 206.04 1185.32 201.40 1188.33 194.53 C 1191.84 186.47 1190.69 176.04 1184.21 169.78 C 1179.74 165.11 1173.21 163.18 1166.91 162.89 C 1155.54 162.21 1144.12 162.34 1132.74 162.58 Z"></path> <path fill="#0055a5" opacity="1.00" d=" M 1437.41 193.00 C 1437.49 173.61 1437.26 154.21 1437.52 134.82 C 1447.81 134.97 1458.11 134.87 1468.41 134.87 C 1468.45 188.78 1468.39 242.68 1468.44 296.58 C 1458.79 296.58 1449.13 296.59 1439.49 296.57 C 1439.49 290.94 1439.48 285.30 1439.48 279.66 C 1434.43 286.61 1427.74 292.48 1419.74 295.76 C 1408.01 300.95 1393.96 300.41 1382.63 294.43 C 1371.57 288.54 1362.96 278.34 1358.68 266.59 C 1354.00 253.98 1353.46 240.24 1354.53 226.96 C 1355.73 213.50 1360.18 199.68 1370.11 190.10 C 1382.58 177.36 1402.81 173.34 1419.34 179.76 C 1426.36 182.56 1432.46 187.34 1437.41 193.00 M 1404.43 201.70 C 1396.69 204.21 1390.79 210.95 1388.33 218.58 C 1385.28 227.99 1385.62 238.10 1386.63 247.81 C 1387.46 255.12 1389.78 262.59 1395.15 267.87 C 1401.36 274.52 1411.72 276.50 1420.12 273.25 C 1427.52 270.24 1432.89 263.41 1435.21 255.89 C 1437.89 247.21 1437.91 237.95 1437.08 228.98 C 1436.21 221.05 1434.05 212.63 1428.01 207.01 C 1421.94 200.99 1412.48 199.13 1404.43 201.70 Z"></path> <path fill="#0055a5" opacity="1.00" d=" M 1485.27 134.88 C 1495.63 134.90 1505.99 134.89 1516.35 134.89 C 1516.34 144.49 1516.38 154.09 1516.33 163.70 C 1505.97 163.64 1495.61 163.72 1485.26 163.66 C 1485.25 154.06 1485.23 144.47 1485.27 134.88 Z"></path> <path fill="#0055a5" opacity="1.00" d=" M 2246.19 134.89 C 2256.54 134.90 2266.90 134.88 2277.26 134.90 C 2277.27 188.79 2277.24 242.67 2277.27 296.56 C 2267.62 296.62 2257.97 296.55 2248.32 296.60 C 2248.32 290.93 2248.30 285.26 2248.33 279.59 C 2239.21 292.71 2223.04 300.97 2206.99 299.08 C 2190.60 297.63 2176.49 285.90 2169.51 271.39 C 2163.25 258.24 2162.11 243.26 2163.14 228.92 C 2164.12 214.78 2168.46 200.03 2178.99 190.01 C 2191.43 177.32 2211.66 173.36 2228.14 179.77 C 2235.16 182.54 2241.19 187.37 2246.20 192.97 C 2246.13 173.61 2246.15 154.25 2246.19 134.89 M 2213.40 201.64 C 2204.91 204.29 2198.69 211.99 2196.53 220.45 C 2193.97 230.23 2194.39 240.55 2195.79 250.48 C 2196.92 258.35 2200.65 266.13 2207.32 270.75 C 2214.96 276.08 2226.08 276.23 2233.64 270.63 C 2238.79 266.90 2242.45 261.32 2244.19 255.23 C 2246.72 246.39 2246.71 237.03 2245.73 227.96 C 2244.81 220.17 2242.42 211.99 2236.38 206.61 C 2230.35 200.93 2221.22 199.22 2213.40 201.64 Z"></path> <path fill="#0055a5" opacity="1.00" d=" M 1971.48 136.19 C 1982.40 136.17 1993.33 136.18 2004.27 136.18 C 2004.29 180.48 2004.25 224.79 2004.29 269.09 C 2031.30 269.09 2058.32 269.09 2085.34 269.09 C 2085.35 278.25 2085.33 287.41 2085.35 296.57 C 2047.39 296.60 2009.44 296.57 1971.49 296.58 C 1971.48 243.12 1971.51 189.65 1971.48 136.19 Z"></path> <path fill="#0055a5" opacity="1.00" d=" M 732.89 156.05 C 743.28 149.99 753.62 143.84 764.03 137.81 C 764.03 151.65 764.02 165.49 764.03 179.33 C 771.12 179.41 778.21 179.15 785.29 179.46 C 785.05 187.70 785.24 195.95 785.18 204.20 C 778.13 204.17 771.07 204.18 764.02 204.19 C 764.14 224.17 763.80 244.15 764.21 264.12 C 763.95 267.67 765.38 271.60 769.00 272.85 C 774.30 274.59 779.85 272.20 784.86 270.46 C 786.15 278.54 786.91 286.75 787.57 294.91 C 776.97 298.82 765.30 300.57 754.13 298.38 C 747.35 296.86 740.23 293.50 736.95 287.03 C 733.05 279.29 733.25 270.40 732.95 261.97 C 732.80 242.71 732.94 223.44 732.88 204.18 C 728.16 204.19 723.45 204.17 718.73 204.20 C 718.72 195.93 718.80 187.66 718.69 179.39 C 723.41 179.25 728.15 179.36 732.88 179.32 C 732.90 171.56 732.88 163.80 732.89 156.05 Z"></path> <path fill="#0055a5" opacity="1.00" d=" M 1656.81 156.03 C 1667.14 149.95 1677.49 143.91 1687.81 137.82 C 1687.84 151.65 1687.81 165.48 1687.83 179.31 C 1694.89 179.35 1701.97 179.31 1709.05 179.33 C 1709.02 187.62 1709.03 195.90 1709.04 204.19 C 1701.97 204.19 1694.89 204.16 1687.83 204.20 C 1687.97 224.49 1687.49 244.79 1688.11 265.07 C 1687.81 268.81 1690.26 272.48 1694.02 273.24 C 1699.14 274.17 1704.14 271.99 1708.96 270.52 C 1709.71 278.63 1710.85 286.70 1711.50 294.83 C 1701.18 298.78 1689.79 300.40 1678.85 298.56 C 1671.76 297.11 1664.24 293.76 1660.79 287.02 C 1657.04 279.59 1657.09 271.05 1656.84 262.94 C 1656.77 243.35 1656.83 223.77 1656.81 204.19 C 1652.06 204.18 1647.33 204.18 1642.60 204.18 C 1642.55 195.90 1642.59 187.63 1642.58 179.35 C 1647.31 179.30 1652.05 179.34 1656.80 179.32 C 1656.82 171.55 1656.79 163.79 1656.81 156.03 Z"></path> <path fill="#0055a5" opacity="1.00" d=" M 2100.59 156.01 C 2110.94 150.00 2121.20 143.84 2131.58 137.88 C 2131.61 151.69 2131.58 165.50 2131.59 179.31 C 2138.64 179.34 2145.69 179.31 2152.75 179.33 C 2152.73 187.62 2152.75 195.90 2152.74 204.19 C 2145.68 204.18 2138.64 204.18 2131.60 204.19 C 2131.68 224.11 2131.37 244.04 2131.82 263.96 C 2131.65 267.40 2132.75 271.35 2136.29 272.70 C 2141.73 274.79 2147.47 272.09 2152.70 270.50 C 2153.62 278.53 2154.38 286.58 2155.41 294.60 C 2146.22 298.59 2135.95 299.88 2126.01 299.06 C 2118.30 298.16 2109.96 295.26 2105.45 288.55 C 2100.82 280.90 2100.85 271.61 2100.61 262.96 C 2100.54 243.37 2100.58 223.79 2100.59 204.20 C 2095.80 204.13 2091.03 204.28 2086.27 204.10 C 2086.38 195.85 2086.28 187.59 2086.32 179.33 C 2091.06 179.32 2095.81 179.33 2100.57 179.32 C 2100.60 171.55 2100.55 163.78 2100.59 156.01 Z"></path> <path fill="#0055a5" opacity="1.00" d=" M 453.32 186.31 C 465.98 176.81 482.90 175.06 498.06 178.17 C 512.30 180.98 525.08 190.42 531.69 203.37 C 538.59 216.76 540.01 232.18 539.79 247.02 C 513.94 247.05 488.09 247.02 462.24 247.04 C 462.45 254.62 464.33 262.60 469.65 268.28 C 476.24 275.78 487.97 278.35 496.95 273.89 C 502.54 271.07 505.50 265.09 507.18 259.33 C 517.52 260.93 527.83 262.71 538.14 264.44 C 533.65 277.94 523.84 290.03 510.35 295.23 C 496.40 300.58 480.62 300.47 466.34 296.47 C 452.43 292.53 441.11 281.68 435.75 268.37 C 429.82 254.16 429.27 238.20 431.60 223.14 C 433.85 208.71 441.33 194.90 453.32 186.31 M 469.62 207.60 C 464.52 212.99 462.74 220.64 462.78 227.88 C 478.15 227.92 493.53 227.92 508.90 227.88 C 508.82 218.72 505.61 208.71 497.35 203.77 C 488.76 198.33 476.39 199.96 469.62 207.60 Z"></path> <path fill="#0055a5" opacity="1.00" d=" M 839.43 177.66 C 852.25 175.75 865.80 176.80 877.69 182.25 C 894.00 189.74 906.31 205.30 909.84 222.91 C 912.68 237.34 911.61 252.85 905.23 266.23 C 897.95 281.08 884.32 292.95 868.21 297.15 C 852.04 301.40 834.33 299.38 819.52 291.62 C 806.99 285.40 797.69 273.61 793.77 260.27 C 788.68 242.82 789.08 223.18 797.84 206.95 C 805.64 190.94 822.00 180.22 839.43 177.66 M 845.46 202.68 C 836.32 204.44 828.69 211.49 825.40 220.09 C 822.12 228.62 821.87 238.05 823.05 247.03 C 824.16 255.45 828.15 263.74 835.15 268.81 C 841.59 273.75 850.33 275.01 858.09 273.04 C 866.90 270.68 873.96 263.42 876.83 254.86 C 879.67 246.56 879.93 237.53 878.76 228.90 C 877.65 220.77 873.92 212.75 867.28 207.70 C 861.27 202.76 853.00 201.24 845.46 202.68 Z"></path> <path fill="#0055a5" opacity="1.00" d=" M 982.00 178.12 C 994.42 175.25 1008.25 176.84 1018.97 184.05 C 1025.37 188.25 1029.43 195.27 1031.23 202.58 C 1032.79 209.25 1032.91 216.14 1033.04 222.96 C 1033.02 247.50 1033.08 272.05 1033.01 296.59 C 1022.66 296.58 1012.31 296.58 1001.96 296.59 C 1002.00 277.07 1001.97 257.54 1001.98 238.02 C 1001.87 230.40 1001.99 222.70 1000.70 215.16 C 999.73 209.33 995.72 204.01 990.14 201.89 C 978.34 197.53 963.57 204.28 959.66 216.37 C 957.42 224.02 957.43 232.09 957.22 239.99 C 957.17 258.84 957.18 277.68 957.21 296.52 C 946.87 296.67 936.52 296.53 926.18 296.59 C 926.15 257.50 926.16 218.42 926.18 179.33 C 935.78 179.28 945.38 179.42 954.98 179.25 C 955.28 184.94 955.01 190.63 955.13 196.33 C 961.83 187.61 971.17 180.63 982.00 178.12 Z"></path> <path fill="#0055a5" opacity="1.00" d=" M 1273.56 177.73 C 1290.39 175.06 1308.83 177.78 1322.57 188.44 C 1331.58 195.25 1338.59 204.73 1342.32 215.41 C 1346.34 227.09 1346.76 239.85 1344.53 251.94 C 1341.60 267.62 1331.78 281.69 1318.41 290.28 C 1301.54 301.03 1279.53 301.81 1261.11 294.77 C 1249.82 290.61 1239.65 282.93 1233.65 272.39 C 1226.21 259.65 1224.28 244.36 1225.43 229.85 C 1227.20 214.47 1234.33 199.23 1246.57 189.44 C 1254.34 183.27 1263.80 179.38 1273.56 177.73 M 1279.53 202.78 C 1270.36 204.75 1262.85 212.03 1259.71 220.74 C 1256.62 229.26 1256.51 238.60 1257.68 247.49 C 1258.87 255.39 1262.48 263.17 1268.89 268.16 C 1275.69 273.83 1285.39 275.27 1293.76 272.72 C 1301.91 270.13 1308.40 263.33 1311.25 255.34 C 1314.05 247.54 1314.38 239.06 1313.59 230.88 C 1312.78 222.63 1309.56 214.29 1303.16 208.79 C 1296.92 202.97 1287.76 201.01 1279.53 202.78 Z"></path> <path fill="#0055a5" opacity="1.00" d=" M 1548.48 186.36 C 1555.07 180.92 1563.62 178.61 1571.95 177.52 C 1582.28 176.38 1592.79 176.53 1603.08 178.04 C 1612.26 179.36 1621.39 183.34 1627.45 190.55 C 1632.02 195.89 1632.88 203.19 1633.55 209.93 C 1634.48 223.25 1633.60 236.61 1633.68 249.95 C 1633.70 262.17 1632.84 274.78 1636.61 286.59 C 1637.71 290.02 1639.14 293.34 1640.72 296.58 C 1630.39 296.52 1620.06 296.72 1609.75 296.48 C 1608.44 292.31 1607.06 288.16 1605.91 283.94 C 1601.40 288.12 1596.47 291.93 1590.88 294.57 C 1580.17 299.77 1567.59 300.57 1556.12 297.66 C 1545.96 295.06 1537.04 287.65 1533.18 277.84 C 1528.49 265.62 1530.56 250.41 1540.09 241.03 C 1546.50 234.60 1555.52 231.96 1564.07 229.73 C 1577.20 226.61 1590.75 224.98 1603.42 220.12 C 1603.62 213.99 1603.11 206.15 1596.90 203.00 C 1589.89 200.09 1581.77 199.93 1574.44 201.63 C 1567.96 203.20 1564.27 209.37 1562.23 215.24 C 1552.85 213.53 1543.48 211.80 1534.09 210.14 C 1536.44 201.07 1541.07 192.29 1548.48 186.36 M 1571.89 248.59 C 1566.86 250.20 1562.47 254.51 1561.93 259.92 C 1560.90 268.25 1567.79 276.20 1575.98 277.13 C 1585.61 278.31 1596.15 273.43 1600.87 264.82 C 1604.38 257.22 1603.06 248.52 1603.42 240.40 C 1593.08 243.81 1582.16 245.00 1571.89 248.59 Z"></path> <path fill="#0055a5" opacity="1.00" d=" M 1771.12 178.34 C 1780.94 174.92 1791.94 177.45 1800.69 182.62 C 1797.46 191.68 1794.28 200.75 1791.06 209.80 C 1786.29 206.80 1780.83 204.32 1775.07 204.74 C 1769.94 205.01 1764.81 207.62 1762.15 212.11 C 1757.05 220.45 1756.73 230.54 1756.18 240.02 C 1755.39 258.87 1755.88 277.74 1755.74 296.60 C 1745.40 296.56 1735.06 296.60 1724.72 296.58 C 1724.71 257.53 1724.83 218.47 1724.66 179.42 C 1734.33 179.20 1744.00 179.39 1753.68 179.33 C 1753.67 184.78 1753.68 190.23 1753.67 195.69 C 1758.25 188.91 1763.05 181.27 1771.12 178.34 Z"></path> <path fill="#0055a5" opacity="1.00" d=" M 540.67 179.33 C 550.75 179.32 560.83 179.33 570.91 179.32 C 578.25 204.85 585.47 230.42 592.85 255.94 C 599.41 230.41 606.35 204.98 612.81 179.43 C 622.84 179.18 632.87 179.40 642.91 179.32 C 649.39 204.88 655.94 230.42 662.38 255.99 C 669.81 230.44 677.30 204.90 684.71 179.34 C 694.94 179.32 705.17 179.31 715.40 179.34 C 702.82 218.41 690.31 257.50 677.77 296.58 C 667.79 296.56 657.81 296.64 647.83 296.54 C 641.26 271.46 634.36 246.47 627.78 221.40 C 621.12 246.44 614.58 271.52 607.95 296.58 C 597.88 296.58 587.81 296.59 577.74 296.58 C 565.41 257.49 553.05 218.41 540.67 179.33 Z"></path> <path fill="#0055a5" opacity="1.00" d=" M 1485.27 179.32 C 1495.64 179.36 1506.01 179.26 1516.38 179.37 C 1516.33 218.44 1516.33 257.50 1516.38 296.57 C 1506.01 296.60 1495.63 296.57 1485.26 296.59 C 1485.25 257.50 1485.23 218.41 1485.27 179.32 Z"></path> <path fill="#0055a5" opacity="1.00" d=" M 1808.28 179.34 C 1819.30 179.31 1830.33 179.32 1841.36 179.33 C 1850.66 207.01 1860.05 234.65 1869.34 262.33 C 1878.50 234.68 1887.54 206.99 1896.66 179.34 C 1907.40 179.31 1918.14 179.34 1928.88 179.32 C 1914.11 219.76 1899.27 260.18 1884.49 300.63 C 1881.00 310.08 1877.91 319.84 1872.31 328.31 C 1868.43 334.20 1862.63 338.77 1855.95 341.06 C 1843.99 345.29 1830.87 344.77 1818.59 342.33 C 1817.60 334.22 1816.76 326.09 1815.84 317.97 C 1824.59 319.34 1834.81 321.17 1842.45 315.45 C 1847.84 310.70 1850.91 303.77 1852.76 296.95 C 1838.18 257.67 1823.08 218.55 1808.28 179.34 Z"></path> </g> <g id="#fefefeff"> <path fill="#fefefe" opacity="1.00" d=" M 139.32 165.39 C 146.05 164.02 146.43 176.98 139.99 177.20 C 134.97 175.84 134.99 167.57 139.32 165.39 Z"></path> <path fill="#fefefe" opacity="1.00" d=" M 212.17 182.07 C 213.82 181.54 216.25 182.10 216.67 184.03 C 217.92 188.66 211.89 194.08 207.58 191.41 C 204.61 187.99 208.45 182.90 212.17 182.07 Z"></path> </g> <g id="#fffffeff"> <path fill="#fffffe" opacity="1.00" d=" M 126.35 166.39 C 133.11 163.54 135.32 178.21 127.93 177.48 C 123.87 175.73 122.91 169.14 126.35 166.39 Z"></path> <path fill="#fffffe" opacity="1.00" d=" M 151.35 166.44 C 155.31 164.83 157.55 169.94 156.69 173.11 C 156.41 176.34 153.15 180.44 149.67 178.34 C 146.12 175.23 147.32 168.60 151.35 166.44 Z"></path> </g> <g id="#fffefdff"> <path fill="#fffefd" opacity="1.00" d=" M 114.34 171.51 C 119.80 168.36 124.14 178.95 119.02 181.65 C 114.00 182.44 111.17 174.89 114.34 171.51 Z"></path> </g> <g id="#fefefdff"> <path fill="#fefefd" opacity="1.00" d=" M 203.39 173.47 C 205.27 172.90 207.46 173.98 207.88 175.97 C 208.85 180.59 204.11 186.32 199.25 184.65 C 194.96 181.34 198.97 174.48 203.39 173.47 Z"></path> <path fill="#fefefd" opacity="1.00" d=" M 221.33 204.37 C 223.68 202.92 228.17 202.82 228.89 206.14 C 229.01 210.87 221.80 213.93 218.58 210.42 C 217.27 208.05 219.22 205.42 221.33 204.37 Z"></path> </g> <g id="#fefeffff"> <path fill="#fefeff" opacity="1.00" d=" M 218.18 192.24 C 220.13 191.28 222.92 191.17 224.32 193.11 C 226.15 198.04 219.11 202.98 214.92 200.12 C 212.50 197.31 215.32 193.39 218.18 192.24 Z"></path> </g> </svg>