<svg xmlns="http://www.w3.org/2000/svg" version="1.1" viewBox="15.28 17.45 137.7 137.44"><g id="#0055a5ff"><path fill="#0055a5" opacity="1.00" d=" M 62.04 21.07 C 77.66 15.75 95.17 16.30 110.41 22.67 C 125.85 28.97 138.79 41.14 146.08 56.14 C 155.01 74.24 155.29 96.37 146.78 114.68 C 136.27 138.07 111.81 154.51 86.09 154.86 C 62.49 154.91 38.89 154.88 15.28 154.85 C 15.34 132.23 15.29 109.61 15.31 86.98 C 14.99 72.70 19.52 58.40 27.75 46.74 C 36.06 34.82 48.28 25.73 62.04 21.07 M 57.24 39.21 C 54.95 39.99 54.52 43.01 54.87 45.08 C 55.72 48.90 57.91 52.99 61.87 54.24 C 65.36 55.05 67.14 50.80 66.34 47.96 C 65.44 43.77 62.31 38.20 57.24 39.21 M 76.77 43.45 C 73.72 48.61 76.45 56.12 81.88 58.42 C 85.39 59.40 87.17 55.06 86.61 52.23 C 86.07 47.54 82.29 41.41 76.77 43.45 M 101.69 52.44 C 102.31 52.73 103.55 53.31 104.17 53.60 C 108.28 51.84 108.62 45.09 104.48 43.36 C 99.75 42.85 99.36 49.60 101.69 52.44 M 91.57 44.52 C 88.21 47.26 89.73 54.09 94.13 54.81 C 100.38 54.10 97.53 41.87 91.57 44.52 M 111.88 53.38 C 117.07 55.24 119.76 46.50 115.55 44.22 C 110.45 42.93 109.47 50.26 111.88 53.38 M 122.94 57.60 C 126.34 56.23 128.53 51.78 126.15 48.58 C 120.87 45.86 117.55 55.90 122.94 57.60 M 47.56 57.47 C 49.02 59.86 51.91 60.24 54.40 59.51 C 55.97 55.57 53.54 50.31 49.00 50.21 C 45.22 50.11 45.64 55.47 47.56 57.47 M 44.03 66.50 C 45.56 65.88 47.64 65.00 47.32 62.93 C 46.73 59.64 43.38 56.66 39.92 57.64 C 36.11 60.74 40.66 65.43 44.03 66.50 M 51.44 67.38 C 46.50 71.62 42.04 77.26 41.67 84.01 C 41.10 91.79 45.76 98.69 50.90 104.05 C 59.51 113.00 70.29 119.73 81.77 124.38 C 85.64 125.71 89.69 127.31 93.86 126.73 C 95.93 126.42 96.73 123.87 96.62 122.05 C 95.95 115.60 92.96 109.71 90.05 104.02 C 81.34 107.72 70.37 106.42 63.92 99.09 C 69.56 93.53 73.46 86.00 73.89 78.03 C 73.97 70.76 70.73 63.92 66.60 58.12 C 61.16 60.49 55.94 63.47 51.44 67.38 M 85.20 63.09 C 86.56 70.12 89.57 77.17 94.98 82.03 C 101.25 87.12 109.52 89.40 117.54 88.77 C 118.44 98.51 112.10 107.64 103.37 111.49 C 105.94 117.39 107.99 123.81 112.57 128.51 C 114.24 130.42 117.81 130.54 119.20 128.24 C 123.58 122.62 125.46 115.56 127.35 108.81 C 130.05 96.89 131.62 84.15 127.88 72.27 C 125.95 66.07 121.12 60.76 114.77 59.02 C 104.79 56.49 94.50 59.41 85.20 63.09 M 32.46 66.58 C 29.51 70.74 38.01 76.56 40.70 71.93 C 41.62 67.75 35.86 64.05 32.46 66.58 M 29.38 76.42 L 28.75 76.77 C 26.11 81.40 35.01 85.37 37.32 81.04 C 37.70 77.18 32.54 74.66 29.38 76.42 Z"></path></g><g id="#fefefeff"><path fill="#fefefe" opacity="1.00" d=" M 57.24 39.21 C 62.31 38.20 65.44 43.77 66.34 47.96 C 67.14 50.80 65.36 55.05 61.87 54.24 C 57.91 52.99 55.72 48.90 54.87 45.08 C 54.52 43.01 54.95 39.99 57.24 39.21 Z"></path><path fill="#fefefe" opacity="1.00" d=" M 76.77 43.45 C 82.29 41.41 86.07 47.54 86.61 52.23 C 87.17 55.06 85.39 59.40 81.88 58.42 C 76.45 56.12 73.72 48.61 76.77 43.45 Z"></path><path fill="#fefefe" opacity="1.00" d=" M 101.69 52.44 C 99.36 49.60 99.75 42.85 104.48 43.36 C 108.62 45.09 108.28 51.84 104.17 53.60 C 103.55 53.31 102.31 52.73 101.69 52.44 Z"></path><path fill="#fefefe" opacity="1.00" d=" M 91.57 44.52 C 97.53 41.87 100.38 54.10 94.13 54.81 C 89.73 54.09 88.21 47.26 91.57 44.52 Z"></path><path fill="#fefefe" opacity="1.00" d=" M 111.88 53.38 C 109.47 50.26 110.45 42.93 115.55 44.22 C 119.76 46.50 117.07 55.24 111.88 53.38 Z"></path><path fill="#fefefe" opacity="1.00" d=" M 122.94 57.60 C 117.55 55.90 120.87 45.86 126.15 48.58 C 128.53 51.78 126.34 56.23 122.94 57.60 Z"></path><path fill="#fefefe" opacity="1.00" d=" M 47.56 57.47 C 45.64 55.47 45.22 50.11 49.00 50.21 C 53.54 50.31 55.97 55.57 54.40 59.51 C 51.91 60.24 49.02 59.86 47.56 57.47 Z"></path><path fill="#fefefe" opacity="1.00" d=" M 44.03 66.50 C 40.66 65.43 36.11 60.74 39.92 57.64 C 43.38 56.66 46.73 59.64 47.32 62.93 C 47.64 65.00 45.56 65.88 44.03 66.50 Z"></path><path fill="#fefefe" opacity="1.00" d=" M 51.44 67.38 C 55.94 63.47 61.16 60.49 66.60 58.12 C 70.73 63.92 73.97 70.76 73.89 78.03 C 73.46 86.00 69.56 93.53 63.92 99.09 C 70.37 106.42 81.34 107.72 90.05 104.02 C 92.96 109.71 95.95 115.60 96.62 122.05 C 96.73 123.87 95.93 126.42 93.86 126.73 C 89.69 127.31 85.64 125.71 81.77 124.38 C 70.29 119.73 59.51 113.00 50.90 104.05 C 45.76 98.69 41.10 91.79 41.67 84.01 C 42.04 77.26 46.50 71.62 51.44 67.38 Z"></path><path fill="#fefefe" opacity="1.00" d=" M 85.20 63.09 C 94.50 59.41 104.79 56.49 114.77 59.02 C 121.12 60.76 125.95 66.07 127.88 72.27 C 131.62 84.15 130.05 96.89 127.35 108.81 C 125.46 115.56 123.58 122.62 119.20 128.24 C 117.81 130.54 114.24 130.42 112.57 128.51 C 107.99 123.81 105.94 117.39 103.37 111.49 C 112.10 107.64 118.44 98.51 117.54 88.77 C 109.52 89.40 101.25 87.12 94.98 82.03 C 89.57 77.17 86.56 70.12 85.20 63.09 Z"></path><path fill="#fefefe" opacity="1.00" d=" M 32.46 66.58 C 35.86 64.05 41.62 67.75 40.70 71.93 C 38.01 76.56 29.51 70.74 32.46 66.58 Z"></path><path fill="#fefefe" opacity="1.00" d=" M 29.38 76.42 C 32.54 74.66 37.70 77.18 37.32 81.04 C 35.01 85.37 26.11 81.40 28.75 76.77 L 29.38 76.42 Z"></path></g></svg>